#!OML:ASF H:\Martial Arts Walks\Project 1\Capture day 1\Session 1\male.ASF
:FULLY-SPECIFIED
:DEGREES
1381
root -4.73746 13.8007 33.7944 -171.027 -164.255 167.997
lowerback 7.1373 3.02182 5.0942
upperback -1.9556 4.66592 2.66775
thorax -5.87134 2.16443 -0.620489
lowerneck -3.01607 2.43722 -0.746915
upperneck 6.39969 3.11782 2.80999
head 2.48452 1.61669 1.1191
rclavicle 1.3418e-015 1.86858e-014
rhumerus -52.4097 23.3397 -84.5985
rradius 101.577
rwrist -4.53709
rhand -19.3176 -29.2796
rfingers 7.12502
rthumb 6.9986 -59.1439
lclavicle 1.3418e-015 1.86858e-014
lhumerus -9.40659 -17.4787 85.4015
lradius 101.335
lwrist 29.1148
lhand -25.1654 9.64194
lfingers 7.12502
lthumb 1.35182 39.6174
rfemur 4.59732 -8.67614 22.5563
rtibia 46.337
rfoot -34.0308 -33.9695
rtoes -23.9575
lfemur -66.0627 24.5609 -9.53918
ltibia 70.2353
lfoot -9.31952 -6.99277
ltoes 9.05977
1382
root -4.72915 13.7891 33.8057 -171.113 -164.209 167.994
lowerback 7.25678 3.0825 5.12734
upperback -1.96515 4.75873 2.65257
thorax -5.94181 2.20642 -0.672547
lowerneck -2.67488 2.32778 -0.649045
upperneck 6.14235 2.98218 2.62866
head 2.34265 1.54303 1.02943
rclavicle 2.70347e-014 4.77083e-015
rhumerus -52.4322 23.0752 -84.434
rradius 100.775
rwrist -4.2519
rhand -19.3824 -28.7628
rfingers 7.12502
rthumb 6.93606 -58.6292
lclavicle 2.70347e-014 4.77083e-015
lhumerus -9.56341 -17.5645 85.4715
lradius 101.341
lwrist 29.1161
lhand -25.1815 9.75985
lfingers 7.12502
lthumb 1.33631 39.7354
rfemur 4.77462 -8.56899 22.5176
rtibia 46.235
rfoot -34.1275 -34.0005
rtoes -23.9754
lfemur -66.0774 24.6692 -9.58009
ltibia 70.4539
lfoot -9.47604 -7.0562
ltoes 9.01805
1383
root -4.7219 13.7764 33.81 -171.113 -164.364 168.053
lowerback 7.34674 3.06757 5.10695
upperback -2.01926 4.74573 2.62935
thorax -6.05062 2.19667 -0.691195
lowerneck -2.72419 2.36493 -0.860638
upperneck 6.25378 3.02465 2.88939
head 2.38183 1.56752 1.15316
rclavicle 2.43511e-014 -1.39149e-014
rhumerus -52.4786 22.8726 -84.2991
rradius 100.023
rwrist -3.98699
rhand -19.5107 -28.7126
rfingers 7.12502
rthumb 6.81216 -58.583
lclavicle 2.43511e-014 -1.39149e-014
lhumerus -9.74159 -17.6051 85.5195
lradius 101.378
lwrist 29.1427
lhand -25.2384 9.78053
lfingers 7.12502
lthumb 1.28133 39.7564
rfemur 4.83417 -8.63174 22.4805
rtibia 46.1727
rfoot -34.222 -34.0542
rtoes -23.9868
lfemur -66.2889 24.605 -9.74912
ltibia 70.6387
lfoot -9.58022 -7.14167
ltoes 9.23118
1384
root -4.71141 13.7619 33.8451 -170.92 -164.53 167.785
lowerback 6.91968 2.9928 5.48801
upperback -1.97575 4.64823 2.68523
thorax -5.74142 2.14514 -0.804513
lowerneck -2.9609 2.37505 -0.735577
upperneck 6.38668 3.0361 2.78105
head 2.47218 1.57508 1.10421
rclavicle -3.29486e-014 -3.57812e-015
rhumerus -52.3159 22.8149 -84.195
rradius 99.2192
rwrist -3.93794
rhand -19.5202 -29.2169
rfingers 7.12502
rthumb 6.80301 -59.0876
lclavicle -3.29486e-014 -3.57812e-015
lhumerus -9.85954 -17.4598 85.4699
lradius 101.401
lwrist 29.1551
lhand -25.2845 9.73577
lfingers 7.12502
lthumb 1.2368 39.7119
rfemur 4.99301 -8.86131 22.5783
rtibia 46.0248
rfoot -34.1837 -34.0685
rtoes -24.4567
lfemur -66.6 24.7016 -9.65739
ltibia 70.9599
lfoot -9.85391 -7.28365
ltoes 9.24509
1385
root -4.70312 13.7514 33.854 -170.912 -164.652 167.818
lowerback 6.99195 2.91918 5.42716
upperback -1.98113 4.55148 2.70072
thorax -5.79886 2.09818 -0.748977
lowerneck -3.13282 2.35252 -0.545021
upperneck 6.44136 3.00968 2.54215
head 2.52815 1.56055 0.998362
rclavicle -1.5704e-014 8.34896e-015
rhumerus -52.2103 22.803 -84.0885
rradius 98.3304
rwrist -3.6701
rhand -19.7121 -28.6252
rfingers 7.12502
rthumb 6.61777 -58.5018
lclavicle -1.5704e-014 8.34896e-015
lhumerus -9.92972 -17.3094 85.3865
lradius 101.396
lwrist 29.1818
lhand -25.2472 9.68449
lfingers 7.12502
lthumb 1.2728 39.6604
rfemur 5.05495 -8.96321 22.5031
rtibia 45.9742
rfoot -33.941 -34.2792
rtoes -24.8335
lfemur -66.7887 24.6904 -9.81593
ltibia 71.1681
lfoot -9.98527 -7.35834
ltoes 9.34914
1386
root -4.69403 13.7351 33.8643 -170.832 -164.769 167.644
lowerback 7.00624 2.88655 5.62172
upperback -2.03131 4.53281 2.75285
thorax -5.8515 2.08053 -0.802132
lowerneck -3.13067 2.37686 -0.621959
upperneck 6.47528 3.04008 2.63374
head 2.53633 1.57674 1.04238
rclavicle -3.8266e-014 -2.38542e-014
rhumerus -52.2627 22.6611 -84.0083
rradius 97.5313
rwrist -3.45526
rhand -19.6441 -29.1418
rfingers 7.12502
rthumb 6.68344 -59.0164
lclavicle -3.8266e-014 -2.38542e-014
lhumerus -10.1734 -17.2777 85.421
lradius 101.45
lwrist 29.1666
lhand -25.2191 9.7061
lfingers 7.12502
lthumb 1.29999 39.6819
rfemur 5.08109 -9.02687 22.646
rtibia 45.9356
rfoot -33.7892 -34.3829
rtoes -25.1185
lfemur -67.0618 24.7591 -9.77252
ltibia 71.4313
lfoot -10.1036 -7.50799
ltoes 9.35605
1387
root -4.68466 13.7205 33.8734 -170.717 -164.917 167.481
lowerback 6.92201 2.84176 5.81753
upperback -2.02747 4.48624 2.80321
thorax -5.79201 2.05309 -0.847456
lowerneck -3.03944 2.35227 -0.626911
upperneck 6.28651 3.01378 2.58876
head 2.45757 1.56087 1.02313
rclavicle -2.29596e-014 1.70955e-014
rhumerus -52.2425 22.4825 -83.8712
rradius 96.7566
rwrist -3.11943
rhand -19.6819 -28.9151
rfingers 7.12502
rthumb 6.64686 -58.7908
lclavicle -2.29596e-014 1.70955e-014
lhumerus -10.3142 -17.2072 85.423
lradius 101.498
lwrist 29.073
lhand -25.1913 9.73915
lfingers 7.12502
lthumb 1.32685 39.7148
rfemur 5.01163 -9.14191 22.7854
rtibia 46.0017
rfoot -34.0149 -34.2405
rtoes -24.9989
lfemur -67.377 24.7866 -9.7472
ltibia 71.6447
lfoot -10.1573 -7.65994
ltoes 9.6573
1388
root -4.67566 13.7068 33.8813 -170.642 -164.993 167.36
lowerback 6.9114 2.84899 5.96825
upperback -2.07718 4.51434 2.84812
thorax -5.83026 2.06033 -0.887454
lowerneck -2.86986 2.36676 -0.808894
upperneck 6.22171 3.0348 2.73666
head 2.40022 1.57015 1.09795
rclavicle 5.56597e-015 -1.74931e-014
rhumerus -52.3993 22.2929 -83.7437
rradius 96.0157
rwrist -2.83273
rhand -19.7915 -29.3048
rfingers 7.12502
rthumb 6.54113 -59.1838
lclavicle 5.56597e-015 -1.74931e-014
lhumerus -10.5815 -17.2215 85.5234
lradius 101.54
lwrist 29.0093
lhand -25.2122 9.6444
lfingers 7.12502
lthumb 1.30665 39.6201
rfemur 4.96035 -9.19904 22.8739
rtibia 46.07
rfoot -34.1119 -34.2107
rtoes -24.9606
lfemur -67.6219 24.8519 -9.74937
ltibia 71.8679
lfoot -10.2357 -7.76489
ltoes 9.56534
1389
root -4.66788 13.6953 33.8914 -170.616 -165.051 167.354
lowerback 6.90849 2.84465 5.9734
upperback -2.08786 4.51056 2.86694
thorax -5.84136 2.05816 -0.870433
lowerneck -2.82043 2.32503 -0.756099
upperneck 6.14184 2.98629 2.59518
head 2.36803 1.54256 1.04001
rclavicle 1.2275e-014 3.93594e-014
rhumerus -52.4153 22.161 -83.6169
rradius 95.1363
rwrist -2.6236
rhand -19.865 -29.3001
rfingers 7.12502
rthumb 6.47016 -59.1813
lclavicle 1.2275e-014 3.93594e-014
lhumerus -10.7217 -17.2011 85.5362
lradius 101.52
lwrist 28.9192
lhand -25.1511 9.74112
lfingers 7.12502
lthumb 1.36561 39.7165
rfemur 4.92991 -9.27196 22.8394
rtibia 46.1546
rfoot -33.9308 -34.4295
rtoes -25.3881
lfemur -67.7981 24.9118 -9.85051
ltibia 72.0483
lfoot -10.3141 -7.90213
ltoes 9.81162
1390
root -4.65875 13.683 33.9053 -170.489 -165.103 167.254
lowerback 6.77535 2.80719 6.05692
upperback -2.05054 4.45626 2.91162
thorax -5.72656 2.03325 -0.855434
lowerneck -2.99792 2.33002 -0.701336
upperneck 6.13091 2.99656 2.49702
head 2.39869 1.54705 1.00274
rclavicle -5.74488e-014 2.3059e-014
rhumerus -52.2606 22.148 -83.484
rradius 94.2872
rwrist -2.5362
rhand -19.8974 -29.5526
rfingers 7.12502
rthumb 6.43883 -59.4347
lclavicle -5.74488e-014 2.3059e-014
lhumerus -10.751 -17.0637 85.4515
lradius 101.48
lwrist 28.8745
lhand -25.0624 9.59426
lfingers 7.12502
lthumb 1.4513 39.5691
rfemur 4.85309 -9.38565 22.8585
rtibia 46.2427
rfoot -34.2865 -34.2153
rtoes -25.159
lfemur -68.0659 25.009 -9.89884
ltibia 72.2454
lfoot -10.4262 -7.99844
ltoes 9.75207
1391
root -4.65113 13.6749 33.9092 -170.512 -165.157 167.381
lowerback 6.8695 2.78973 5.91778
upperback -2.05353 4.42791 2.89015
thorax -5.79296 2.02191 -0.803661
lowerneck -3.06857 2.32609 -0.722321
upperneck 6.11752 2.99117 2.52345
head 2.40671 1.545 1.01578
rclavicle 1.47101e-014 -3.02153e-014
rhumerus -52.2608 21.9956 -83.3489
rradius 93.5032
rwrist -2.35897
rhand -19.7606 -29.8066
rfingers 7.12502
rthumb 6.57092 -59.6847
lclavicle 1.47101e-014 -3.02153e-014
lhumerus -10.8867 -17.0064 85.4529
lradius 101.455
lwrist 28.8629
lhand -25.0374 9.60644
lfingers 7.12502
lthumb 1.47548 39.5811
rfemur 4.82249 -9.47145 22.6906
rtibia 46.3297
rfoot -34.4679 -34.1316
rtoes -25.1202
lfemur -68.1748 24.9686 -10.1052
ltibia 72.3481
lfoot -10.472 -8.05479
ltoes 10.0235
1392
root -4.64724 13.6671 33.9132 -170.449 -165.035 167.458
lowerback 6.86118 2.82239 5.7223
upperback -2.0246 4.45101 2.88185
thorax -5.76938 2.04152 -0.705951
lowerneck -3.17321 2.3086 -0.609007
upperneck 6.01347 2.97191 2.38497
head 2.39495 1.53414 0.951854
rclavicle 6.08281e-014 6.36111e-015
rhumerus -52.1837 21.9175 -83.22
rradius 92.6548
rwrist -2.20942
rhand -19.8212 -29.6821
rfingers 7.12502
rthumb 6.51245 -59.562
lclavicle 6.08281e-014 6.36111e-015
lhumerus -10.9828 -16.9311 85.3965
lradius 101.453
lwrist 28.7897
lhand -25.0282 9.62774
lfingers 7.12502
lthumb 1.4843 39.6023
rfemur 4.68944 -9.40055 22.5694
rtibia 46.4487
rfoot -34.5642 -34.1344
rtoes -25.3064
lfemur -68.3119 25.1565 -10.297
ltibia 72.4496
lfoot -10.5866 -8.1061
ltoes 9.8658
1393
root -4.63964 13.6626 33.9231 -170.478 -165.069 167.55
lowerback 6.84255 2.82723 5.66923
upperback -2.02154 4.44936 2.85184
thorax -5.75678 2.04257 -0.706619
lowerneck -3.02912 2.32092 -0.765188
upperneck 5.92804 2.98473 2.60813
head 2.33521 1.54233 1.04616
rclavicle -3.45388e-014 -5.00937e-014
rhumerus -52.1882 21.7322 -83.1086
rradius 91.7269
rwrist -2.15865
rhand -19.7821 -29.7548
rfingers 7.12502
rthumb 6.5502 -59.6335
lclavicle -3.45388e-014 -5.00937e-014
lhumerus -11.1106 -16.9495 85.375
lradius 101.367
lwrist 28.7456
lhand -25.0037 9.65733
lfingers 7.12502
lthumb 1.50798 39.6318
rfemur 4.71968 -9.49254 22.3989
rtibia 46.5201
rfoot -34.7219 -34.0591
rtoes -25.4674
lfemur -68.3656 25.1508 -10.457
ltibia 72.533
lfoot -10.6505 -8.16627
ltoes 10.4057
1394
root -4.63199 13.6512 33.9188 -170.44 -165.142 167.481
lowerback 7.04084 2.81855 5.70137
upperback -2.11216 4.46518 2.88604
thorax -5.96602 2.04237 -0.704234
lowerneck -2.80514 2.29568 -0.828112
upperneck 5.85329 2.95355 2.63497
head 2.26907 1.52456 1.05918
rclavicle 2.62893e-014 3.57812e-014
rhumerus -52.2445 21.6244 -83.0001
rradius 90.6994
rwrist -2.20378
rhand -19.801 -29.6077
rfingers 7.12502
rthumb 6.53196 -59.487
lclavicle 2.62893e-014 3.57812e-014
lhumerus -11.376 -16.955 85.4455
lradius 101.302
lwrist 28.7057
lhand -25.015 9.60065
lfingers 7.12502
lthumb 1.49705 39.5751
rfemur 4.6148 -9.49502 22.5022
rtibia 46.618
rfoot -34.7479 -34.1215
rtoes -25.546
lfemur -68.5343 25.1339 -10.4733
ltibia 72.625
lfoot -10.6826 -8.16487
ltoes 10.1167
1395
root -4.62489 13.6434 33.9316 -170.427 -165.168 167.528
lowerback 6.96233 2.8168 5.68429
upperback -2.10864 4.45323 2.86362
thorax -5.9173 2.03829 -0.71227
lowerneck -2.82512 2.2798 -0.818806
upperneck 5.91512 2.9284 2.67443
head 2.29327 1.5137 1.07091
rclavicle -4.70126e-014 -2.54444e-014
rhumerus -52.1551 21.4733 -82.8893
rradius 89.59
rwrist -2.25484
rhand -19.7576 -29.5904
rfingers 7.12502
rthumb 6.57378 -59.4684
lclavicle -4.70126e-014 -2.54444e-014
lhumerus -11.4914 -16.9274 85.3986
lradius 101.211
lwrist 28.7537
lhand -25.0437 9.79408
lfingers 7.12502
lthumb 1.46931 39.7688
rfemur 4.67149 -9.56902 22.3546
rtibia 46.6261
rfoot -34.8007 -34.0628
rtoes -25.8909
lfemur -68.6368 25.1691 -10.6162
ltibia 72.7757
lfoot -10.7893 -8.19263
ltoes 10.15
